G04 #@! TF.GenerationSoftware,KiCad,Pcbnew,(5.1.6)-1*
G04 #@! TF.CreationDate,2020-06-25T21:37:00+09:00*
G04 #@! TF.ProjectId,MAX1722x-Breakout,4d415831-3732-4327-982d-427265616b6f,rev?*
G04 #@! TF.SameCoordinates,Original*
G04 #@! TF.FileFunction,Legend,Top*
G04 #@! TF.FilePolarity,Positive*
%FSLAX46Y46*%
G04 Gerber Fmt 4.6, Leading zero omitted, Abs format (unit mm)*
G04 Created by KiCad (PCBNEW (5.1.6)-1) date 2020-06-25 21:37:00*
%MOMM*%
%LPD*%
G01*
G04 APERTURE LIST*
%ADD10C,0.150000*%
%ADD11C,0.120000*%
%ADD12R,0.900000X0.450000*%
%ADD13C,1.700000*%
G04 APERTURE END LIST*
D10*
X125139523Y-54679857D02*
X125406190Y-54679857D01*
X125520476Y-55098904D02*
X125139523Y-55098904D01*
X125139523Y-54298904D01*
X125520476Y-54298904D01*
X125863333Y-55098904D02*
X125863333Y-54298904D01*
X126320476Y-55098904D01*
X126320476Y-54298904D01*
X128295476Y-60433000D02*
X128219285Y-60394904D01*
X128105000Y-60394904D01*
X127990714Y-60433000D01*
X127914523Y-60509190D01*
X127876428Y-60585380D01*
X127838333Y-60737761D01*
X127838333Y-60852047D01*
X127876428Y-61004428D01*
X127914523Y-61080619D01*
X127990714Y-61156809D01*
X128105000Y-61194904D01*
X128181190Y-61194904D01*
X128295476Y-61156809D01*
X128333571Y-61118714D01*
X128333571Y-60852047D01*
X128181190Y-60852047D01*
X128676428Y-61194904D02*
X128676428Y-60394904D01*
X129133571Y-61194904D01*
X129133571Y-60394904D01*
X129514523Y-61194904D02*
X129514523Y-60394904D01*
X129705000Y-60394904D01*
X129819285Y-60433000D01*
X129895476Y-60509190D01*
X129933571Y-60585380D01*
X129971666Y-60737761D01*
X129971666Y-60852047D01*
X129933571Y-61004428D01*
X129895476Y-61080619D01*
X129819285Y-61156809D01*
X129705000Y-61194904D01*
X129514523Y-61194904D01*
X130772000Y-60394904D02*
X130924380Y-60394904D01*
X131000571Y-60433000D01*
X131076761Y-60509190D01*
X131114857Y-60661571D01*
X131114857Y-60928238D01*
X131076761Y-61080619D01*
X131000571Y-61156809D01*
X130924380Y-61194904D01*
X130772000Y-61194904D01*
X130695809Y-61156809D01*
X130619619Y-61080619D01*
X130581523Y-60928238D01*
X130581523Y-60661571D01*
X130619619Y-60509190D01*
X130695809Y-60433000D01*
X130772000Y-60394904D01*
X131457714Y-60394904D02*
X131457714Y-61042523D01*
X131495809Y-61118714D01*
X131533904Y-61156809D01*
X131610095Y-61194904D01*
X131762476Y-61194904D01*
X131838666Y-61156809D01*
X131876761Y-61118714D01*
X131914857Y-61042523D01*
X131914857Y-60394904D01*
X132181523Y-60394904D02*
X132638666Y-60394904D01*
X132410095Y-61194904D02*
X132410095Y-60394904D01*
X125818952Y-61194904D02*
X125818952Y-60394904D01*
X126199904Y-61194904D02*
X126199904Y-60394904D01*
X126657047Y-61194904D01*
X126657047Y-60394904D01*
D11*
X130028000Y-58801000D02*
G75*
G03*
X130028000Y-58801000I-150000J0D01*
G01*
X129878000Y-58631000D02*
X127678000Y-58631000D01*
X127678000Y-58631000D02*
X127678000Y-56431000D01*
X127678000Y-56431000D02*
X129878000Y-56431000D01*
X129878000Y-56431000D02*
X129878000Y-58631000D01*
X128742221Y-56009000D02*
X129067779Y-56009000D01*
X128742221Y-54989000D02*
X129067779Y-54989000D01*
X128996221Y-52576000D02*
X129321779Y-52576000D01*
X128996221Y-53596000D02*
X129321779Y-53596000D01*
X130862000Y-55875422D02*
X130862000Y-56392578D01*
X132282000Y-55875422D02*
X132282000Y-56392578D01*
X130464779Y-59053000D02*
X130139221Y-59053000D01*
X130464779Y-60073000D02*
X130139221Y-60073000D01*
X125855000Y-58511221D02*
X125855000Y-58836779D01*
X126875000Y-58511221D02*
X126875000Y-58836779D01*
D10*
X128339904Y-58267523D02*
X128987523Y-58267523D01*
X129063714Y-58229428D01*
X129101809Y-58191333D01*
X129139904Y-58115142D01*
X129139904Y-57962761D01*
X129101809Y-57886571D01*
X129063714Y-57848476D01*
X128987523Y-57810380D01*
X128339904Y-57810380D01*
X129139904Y-57010380D02*
X129139904Y-57467523D01*
X129139904Y-57238952D02*
X128339904Y-57238952D01*
X128454190Y-57315142D01*
X128530380Y-57391333D01*
X128568476Y-57467523D01*
X128771666Y-54717904D02*
X128505000Y-54336952D01*
X128314523Y-54717904D02*
X128314523Y-53917904D01*
X128619285Y-53917904D01*
X128695476Y-53956000D01*
X128733571Y-53994095D01*
X128771666Y-54070285D01*
X128771666Y-54184571D01*
X128733571Y-54260761D01*
X128695476Y-54298857D01*
X128619285Y-54336952D01*
X128314523Y-54336952D01*
X129076428Y-53994095D02*
X129114523Y-53956000D01*
X129190714Y-53917904D01*
X129381190Y-53917904D01*
X129457380Y-53956000D01*
X129495476Y-53994095D01*
X129533571Y-54070285D01*
X129533571Y-54146476D01*
X129495476Y-54260761D01*
X129038333Y-54717904D01*
X129533571Y-54717904D01*
X127615904Y-53219333D02*
X127234952Y-53486000D01*
X127615904Y-53676476D02*
X126815904Y-53676476D01*
X126815904Y-53371714D01*
X126854000Y-53295523D01*
X126892095Y-53257428D01*
X126968285Y-53219333D01*
X127082571Y-53219333D01*
X127158761Y-53257428D01*
X127196857Y-53295523D01*
X127234952Y-53371714D01*
X127234952Y-53676476D01*
X127615904Y-52457428D02*
X127615904Y-52914571D01*
X127615904Y-52686000D02*
X126815904Y-52686000D01*
X126930190Y-52762190D01*
X127006380Y-52838380D01*
X127044476Y-52914571D01*
X131438666Y-54336904D02*
X131057714Y-54336904D01*
X131057714Y-53536904D01*
X132124380Y-54336904D02*
X131667238Y-54336904D01*
X131895809Y-54336904D02*
X131895809Y-53536904D01*
X131819619Y-53651190D01*
X131743428Y-53727380D01*
X131667238Y-53765476D01*
X130930666Y-58705714D02*
X130892571Y-58743809D01*
X130778285Y-58781904D01*
X130702095Y-58781904D01*
X130587809Y-58743809D01*
X130511619Y-58667619D01*
X130473523Y-58591428D01*
X130435428Y-58439047D01*
X130435428Y-58324761D01*
X130473523Y-58172380D01*
X130511619Y-58096190D01*
X130587809Y-58020000D01*
X130702095Y-57981904D01*
X130778285Y-57981904D01*
X130892571Y-58020000D01*
X130930666Y-58058095D01*
X131235428Y-58058095D02*
X131273523Y-58020000D01*
X131349714Y-57981904D01*
X131540190Y-57981904D01*
X131616380Y-58020000D01*
X131654476Y-58058095D01*
X131692571Y-58134285D01*
X131692571Y-58210476D01*
X131654476Y-58324761D01*
X131197333Y-58781904D01*
X131692571Y-58781904D01*
X125507714Y-58807333D02*
X125545809Y-58845428D01*
X125583904Y-58959714D01*
X125583904Y-59035904D01*
X125545809Y-59150190D01*
X125469619Y-59226380D01*
X125393428Y-59264476D01*
X125241047Y-59302571D01*
X125126761Y-59302571D01*
X124974380Y-59264476D01*
X124898190Y-59226380D01*
X124822000Y-59150190D01*
X124783904Y-59035904D01*
X124783904Y-58959714D01*
X124822000Y-58845428D01*
X124860095Y-58807333D01*
X125583904Y-58045428D02*
X125583904Y-58502571D01*
X125583904Y-58274000D02*
X124783904Y-58274000D01*
X124898190Y-58350190D01*
X124974380Y-58426380D01*
X125012476Y-58502571D01*
%LPC*%
D12*
X127863000Y-56881000D03*
X127863000Y-57531000D03*
X127863000Y-58181000D03*
X129693000Y-56881000D03*
X129693000Y-57531000D03*
X129693000Y-58181000D03*
G36*
G01*
X129205000Y-55780250D02*
X129205000Y-55217750D01*
G75*
G02*
X129448750Y-54974000I243750J0D01*
G01*
X129936250Y-54974000D01*
G75*
G02*
X130180000Y-55217750I0J-243750D01*
G01*
X130180000Y-55780250D01*
G75*
G02*
X129936250Y-56024000I-243750J0D01*
G01*
X129448750Y-56024000D01*
G75*
G02*
X129205000Y-55780250I0J243750D01*
G01*
G37*
G36*
G01*
X127630000Y-55780250D02*
X127630000Y-55217750D01*
G75*
G02*
X127873750Y-54974000I243750J0D01*
G01*
X128361250Y-54974000D01*
G75*
G02*
X128605000Y-55217750I0J-243750D01*
G01*
X128605000Y-55780250D01*
G75*
G02*
X128361250Y-56024000I-243750J0D01*
G01*
X127873750Y-56024000D01*
G75*
G02*
X127630000Y-55780250I0J243750D01*
G01*
G37*
G36*
G01*
X127884000Y-53367250D02*
X127884000Y-52804750D01*
G75*
G02*
X128127750Y-52561000I243750J0D01*
G01*
X128615250Y-52561000D01*
G75*
G02*
X128859000Y-52804750I0J-243750D01*
G01*
X128859000Y-53367250D01*
G75*
G02*
X128615250Y-53611000I-243750J0D01*
G01*
X128127750Y-53611000D01*
G75*
G02*
X127884000Y-53367250I0J243750D01*
G01*
G37*
G36*
G01*
X129459000Y-53367250D02*
X129459000Y-52804750D01*
G75*
G02*
X129702750Y-52561000I243750J0D01*
G01*
X130190250Y-52561000D01*
G75*
G02*
X130434000Y-52804750I0J-243750D01*
G01*
X130434000Y-53367250D01*
G75*
G02*
X130190250Y-53611000I-243750J0D01*
G01*
X129702750Y-53611000D01*
G75*
G02*
X129459000Y-53367250I0J243750D01*
G01*
G37*
G36*
G01*
X131090750Y-56534000D02*
X132053250Y-56534000D01*
G75*
G02*
X132322000Y-56802750I0J-268750D01*
G01*
X132322000Y-57340250D01*
G75*
G02*
X132053250Y-57609000I-268750J0D01*
G01*
X131090750Y-57609000D01*
G75*
G02*
X130822000Y-57340250I0J268750D01*
G01*
X130822000Y-56802750D01*
G75*
G02*
X131090750Y-56534000I268750J0D01*
G01*
G37*
G36*
G01*
X131090750Y-54659000D02*
X132053250Y-54659000D01*
G75*
G02*
X132322000Y-54927750I0J-268750D01*
G01*
X132322000Y-55465250D01*
G75*
G02*
X132053250Y-55734000I-268750J0D01*
G01*
X131090750Y-55734000D01*
G75*
G02*
X130822000Y-55465250I0J268750D01*
G01*
X130822000Y-54927750D01*
G75*
G02*
X131090750Y-54659000I268750J0D01*
G01*
G37*
D13*
X125730000Y-53340000D03*
X131445000Y-62230000D03*
X128905000Y-62230000D03*
X126365000Y-62230000D03*
G36*
G01*
X130002000Y-59281750D02*
X130002000Y-59844250D01*
G75*
G02*
X129758250Y-60088000I-243750J0D01*
G01*
X129270750Y-60088000D01*
G75*
G02*
X129027000Y-59844250I0J243750D01*
G01*
X129027000Y-59281750D01*
G75*
G02*
X129270750Y-59038000I243750J0D01*
G01*
X129758250Y-59038000D01*
G75*
G02*
X130002000Y-59281750I0J-243750D01*
G01*
G37*
G36*
G01*
X131577000Y-59281750D02*
X131577000Y-59844250D01*
G75*
G02*
X131333250Y-60088000I-243750J0D01*
G01*
X130845750Y-60088000D01*
G75*
G02*
X130602000Y-59844250I0J243750D01*
G01*
X130602000Y-59281750D01*
G75*
G02*
X130845750Y-59038000I243750J0D01*
G01*
X131333250Y-59038000D01*
G75*
G02*
X131577000Y-59281750I0J-243750D01*
G01*
G37*
G36*
G01*
X126083750Y-58974000D02*
X126646250Y-58974000D01*
G75*
G02*
X126890000Y-59217750I0J-243750D01*
G01*
X126890000Y-59705250D01*
G75*
G02*
X126646250Y-59949000I-243750J0D01*
G01*
X126083750Y-59949000D01*
G75*
G02*
X125840000Y-59705250I0J243750D01*
G01*
X125840000Y-59217750D01*
G75*
G02*
X126083750Y-58974000I243750J0D01*
G01*
G37*
G36*
G01*
X126083750Y-57399000D02*
X126646250Y-57399000D01*
G75*
G02*
X126890000Y-57642750I0J-243750D01*
G01*
X126890000Y-58130250D01*
G75*
G02*
X126646250Y-58374000I-243750J0D01*
G01*
X126083750Y-58374000D01*
G75*
G02*
X125840000Y-58130250I0J243750D01*
G01*
X125840000Y-57642750D01*
G75*
G02*
X126083750Y-57399000I243750J0D01*
G01*
G37*
M02*
