G04 #@! TF.GenerationSoftware,KiCad,Pcbnew,(5.1.6)-1*
G04 #@! TF.CreationDate,2020-06-25T21:37:00+09:00*
G04 #@! TF.ProjectId,MAX1722x-Breakout,4d415831-3732-4327-982d-427265616b6f,rev?*
G04 #@! TF.SameCoordinates,Original*
G04 #@! TF.FileFunction,Paste,Top*
G04 #@! TF.FilePolarity,Positive*
%FSLAX46Y46*%
G04 Gerber Fmt 4.6, Leading zero omitted, Abs format (unit mm)*
G04 Created by KiCad (PCBNEW (5.1.6)-1) date 2020-06-25 21:37:00*
%MOMM*%
%LPD*%
G01*
G04 APERTURE LIST*
%ADD10R,0.800000X0.350000*%
G04 APERTURE END LIST*
D10*
X127863000Y-56881000D03*
X127863000Y-57531000D03*
X127863000Y-58181000D03*
X129693000Y-56881000D03*
X129693000Y-57531000D03*
X129693000Y-58181000D03*
G36*
G01*
X129255000Y-55755250D02*
X129255000Y-55242750D01*
G75*
G02*
X129473750Y-55024000I218750J0D01*
G01*
X129911250Y-55024000D01*
G75*
G02*
X130130000Y-55242750I0J-218750D01*
G01*
X130130000Y-55755250D01*
G75*
G02*
X129911250Y-55974000I-218750J0D01*
G01*
X129473750Y-55974000D01*
G75*
G02*
X129255000Y-55755250I0J218750D01*
G01*
G37*
G36*
G01*
X127680000Y-55755250D02*
X127680000Y-55242750D01*
G75*
G02*
X127898750Y-55024000I218750J0D01*
G01*
X128336250Y-55024000D01*
G75*
G02*
X128555000Y-55242750I0J-218750D01*
G01*
X128555000Y-55755250D01*
G75*
G02*
X128336250Y-55974000I-218750J0D01*
G01*
X127898750Y-55974000D01*
G75*
G02*
X127680000Y-55755250I0J218750D01*
G01*
G37*
G36*
G01*
X127934000Y-53342250D02*
X127934000Y-52829750D01*
G75*
G02*
X128152750Y-52611000I218750J0D01*
G01*
X128590250Y-52611000D01*
G75*
G02*
X128809000Y-52829750I0J-218750D01*
G01*
X128809000Y-53342250D01*
G75*
G02*
X128590250Y-53561000I-218750J0D01*
G01*
X128152750Y-53561000D01*
G75*
G02*
X127934000Y-53342250I0J218750D01*
G01*
G37*
G36*
G01*
X129509000Y-53342250D02*
X129509000Y-52829750D01*
G75*
G02*
X129727750Y-52611000I218750J0D01*
G01*
X130165250Y-52611000D01*
G75*
G02*
X130384000Y-52829750I0J-218750D01*
G01*
X130384000Y-53342250D01*
G75*
G02*
X130165250Y-53561000I-218750J0D01*
G01*
X129727750Y-53561000D01*
G75*
G02*
X129509000Y-53342250I0J218750D01*
G01*
G37*
G36*
G01*
X131115750Y-56584000D02*
X132028250Y-56584000D01*
G75*
G02*
X132272000Y-56827750I0J-243750D01*
G01*
X132272000Y-57315250D01*
G75*
G02*
X132028250Y-57559000I-243750J0D01*
G01*
X131115750Y-57559000D01*
G75*
G02*
X130872000Y-57315250I0J243750D01*
G01*
X130872000Y-56827750D01*
G75*
G02*
X131115750Y-56584000I243750J0D01*
G01*
G37*
G36*
G01*
X131115750Y-54709000D02*
X132028250Y-54709000D01*
G75*
G02*
X132272000Y-54952750I0J-243750D01*
G01*
X132272000Y-55440250D01*
G75*
G02*
X132028250Y-55684000I-243750J0D01*
G01*
X131115750Y-55684000D01*
G75*
G02*
X130872000Y-55440250I0J243750D01*
G01*
X130872000Y-54952750D01*
G75*
G02*
X131115750Y-54709000I243750J0D01*
G01*
G37*
G36*
G01*
X129952000Y-59306750D02*
X129952000Y-59819250D01*
G75*
G02*
X129733250Y-60038000I-218750J0D01*
G01*
X129295750Y-60038000D01*
G75*
G02*
X129077000Y-59819250I0J218750D01*
G01*
X129077000Y-59306750D01*
G75*
G02*
X129295750Y-59088000I218750J0D01*
G01*
X129733250Y-59088000D01*
G75*
G02*
X129952000Y-59306750I0J-218750D01*
G01*
G37*
G36*
G01*
X131527000Y-59306750D02*
X131527000Y-59819250D01*
G75*
G02*
X131308250Y-60038000I-218750J0D01*
G01*
X130870750Y-60038000D01*
G75*
G02*
X130652000Y-59819250I0J218750D01*
G01*
X130652000Y-59306750D01*
G75*
G02*
X130870750Y-59088000I218750J0D01*
G01*
X131308250Y-59088000D01*
G75*
G02*
X131527000Y-59306750I0J-218750D01*
G01*
G37*
G36*
G01*
X126108750Y-59024000D02*
X126621250Y-59024000D01*
G75*
G02*
X126840000Y-59242750I0J-218750D01*
G01*
X126840000Y-59680250D01*
G75*
G02*
X126621250Y-59899000I-218750J0D01*
G01*
X126108750Y-59899000D01*
G75*
G02*
X125890000Y-59680250I0J218750D01*
G01*
X125890000Y-59242750D01*
G75*
G02*
X126108750Y-59024000I218750J0D01*
G01*
G37*
G36*
G01*
X126108750Y-57449000D02*
X126621250Y-57449000D01*
G75*
G02*
X126840000Y-57667750I0J-218750D01*
G01*
X126840000Y-58105250D01*
G75*
G02*
X126621250Y-58324000I-218750J0D01*
G01*
X126108750Y-58324000D01*
G75*
G02*
X125890000Y-58105250I0J218750D01*
G01*
X125890000Y-57667750D01*
G75*
G02*
X126108750Y-57449000I218750J0D01*
G01*
G37*
M02*
