G04 #@! TF.GenerationSoftware,KiCad,Pcbnew,(5.1.6)-1*
G04 #@! TF.CreationDate,2020-06-25T21:37:00+09:00*
G04 #@! TF.ProjectId,MAX1722x-Breakout,4d415831-3732-4327-982d-427265616b6f,rev?*
G04 #@! TF.SameCoordinates,Original*
G04 #@! TF.FileFunction,Legend,Bot*
G04 #@! TF.FilePolarity,Positive*
%FSLAX46Y46*%
G04 Gerber Fmt 4.6, Leading zero omitted, Abs format (unit mm)*
G04 Created by KiCad (PCBNEW (5.1.6)-1) date 2020-06-25 21:37:00*
%MOMM*%
%LPD*%
G01*
G04 APERTURE LIST*
%ADD10C,0.150000*%
%ADD11C,1.700000*%
G04 APERTURE END LIST*
D10*
X132452619Y-55761380D02*
X132452619Y-54761380D01*
X132119285Y-55475666D01*
X131785952Y-54761380D01*
X131785952Y-55761380D01*
X131357380Y-55475666D02*
X130881190Y-55475666D01*
X131452619Y-55761380D02*
X131119285Y-54761380D01*
X130785952Y-55761380D01*
X130547857Y-54761380D02*
X129881190Y-55761380D01*
X129881190Y-54761380D02*
X130547857Y-55761380D01*
X128976428Y-55761380D02*
X129547857Y-55761380D01*
X129262142Y-55761380D02*
X129262142Y-54761380D01*
X129357380Y-54904238D01*
X129452619Y-54999476D01*
X129547857Y-55047095D01*
X128643095Y-54761380D02*
X127976428Y-54761380D01*
X128405000Y-55761380D01*
X127643095Y-54856619D02*
X127595476Y-54809000D01*
X127500238Y-54761380D01*
X127262142Y-54761380D01*
X127166904Y-54809000D01*
X127119285Y-54856619D01*
X127071666Y-54951857D01*
X127071666Y-55047095D01*
X127119285Y-55189952D01*
X127690714Y-55761380D01*
X127071666Y-55761380D01*
X126690714Y-54856619D02*
X126643095Y-54809000D01*
X126547857Y-54761380D01*
X126309761Y-54761380D01*
X126214523Y-54809000D01*
X126166904Y-54856619D01*
X126119285Y-54951857D01*
X126119285Y-55047095D01*
X126166904Y-55189952D01*
X126738333Y-55761380D01*
X126119285Y-55761380D01*
X125785952Y-55761380D02*
X125262142Y-55094714D01*
X125785952Y-55094714D02*
X125262142Y-55761380D01*
X131619285Y-56887571D02*
X131476428Y-56935190D01*
X131428809Y-56982809D01*
X131381190Y-57078047D01*
X131381190Y-57220904D01*
X131428809Y-57316142D01*
X131476428Y-57363761D01*
X131571666Y-57411380D01*
X131952619Y-57411380D01*
X131952619Y-56411380D01*
X131619285Y-56411380D01*
X131524047Y-56459000D01*
X131476428Y-56506619D01*
X131428809Y-56601857D01*
X131428809Y-56697095D01*
X131476428Y-56792333D01*
X131524047Y-56839952D01*
X131619285Y-56887571D01*
X131952619Y-56887571D01*
X130952619Y-57411380D02*
X130952619Y-56744714D01*
X130952619Y-56935190D02*
X130905000Y-56839952D01*
X130857380Y-56792333D01*
X130762142Y-56744714D01*
X130666904Y-56744714D01*
X129952619Y-57363761D02*
X130047857Y-57411380D01*
X130238333Y-57411380D01*
X130333571Y-57363761D01*
X130381190Y-57268523D01*
X130381190Y-56887571D01*
X130333571Y-56792333D01*
X130238333Y-56744714D01*
X130047857Y-56744714D01*
X129952619Y-56792333D01*
X129905000Y-56887571D01*
X129905000Y-56982809D01*
X130381190Y-57078047D01*
X129047857Y-57411380D02*
X129047857Y-56887571D01*
X129095476Y-56792333D01*
X129190714Y-56744714D01*
X129381190Y-56744714D01*
X129476428Y-56792333D01*
X129047857Y-57363761D02*
X129143095Y-57411380D01*
X129381190Y-57411380D01*
X129476428Y-57363761D01*
X129524047Y-57268523D01*
X129524047Y-57173285D01*
X129476428Y-57078047D01*
X129381190Y-57030428D01*
X129143095Y-57030428D01*
X129047857Y-56982809D01*
X128571666Y-57411380D02*
X128571666Y-56411380D01*
X128476428Y-57030428D02*
X128190714Y-57411380D01*
X128190714Y-56744714D02*
X128571666Y-57125666D01*
X127619285Y-57411380D02*
X127714523Y-57363761D01*
X127762142Y-57316142D01*
X127809761Y-57220904D01*
X127809761Y-56935190D01*
X127762142Y-56839952D01*
X127714523Y-56792333D01*
X127619285Y-56744714D01*
X127476428Y-56744714D01*
X127381190Y-56792333D01*
X127333571Y-56839952D01*
X127285952Y-56935190D01*
X127285952Y-57220904D01*
X127333571Y-57316142D01*
X127381190Y-57363761D01*
X127476428Y-57411380D01*
X127619285Y-57411380D01*
X126428809Y-56744714D02*
X126428809Y-57411380D01*
X126857380Y-56744714D02*
X126857380Y-57268523D01*
X126809761Y-57363761D01*
X126714523Y-57411380D01*
X126571666Y-57411380D01*
X126476428Y-57363761D01*
X126428809Y-57316142D01*
X126095476Y-56744714D02*
X125714523Y-56744714D01*
X125952619Y-56411380D02*
X125952619Y-57268523D01*
X125905000Y-57363761D01*
X125809761Y-57411380D01*
X125714523Y-57411380D01*
%LPC*%
D11*
X125730000Y-53340000D03*
X131445000Y-62230000D03*
X128905000Y-62230000D03*
X126365000Y-62230000D03*
M02*
