G04 #@! TF.GenerationSoftware,KiCad,Pcbnew,(5.1.6)-1*
G04 #@! TF.CreationDate,2020-06-25T21:37:00+09:00*
G04 #@! TF.ProjectId,MAX1722x-Breakout,4d415831-3732-4327-982d-427265616b6f,rev?*
G04 #@! TF.SameCoordinates,Original*
G04 #@! TF.FileFunction,Soldermask,Top*
G04 #@! TF.FilePolarity,Negative*
%FSLAX46Y46*%
G04 Gerber Fmt 4.6, Leading zero omitted, Abs format (unit mm)*
G04 Created by KiCad (PCBNEW (5.1.6)-1) date 2020-06-25 21:37:00*
%MOMM*%
%LPD*%
G01*
G04 APERTURE LIST*
%ADD10R,0.900000X0.450000*%
%ADD11C,1.700000*%
G04 APERTURE END LIST*
D10*
X127863000Y-56881000D03*
X127863000Y-57531000D03*
X127863000Y-58181000D03*
X129693000Y-56881000D03*
X129693000Y-57531000D03*
X129693000Y-58181000D03*
G36*
G01*
X129205000Y-55780250D02*
X129205000Y-55217750D01*
G75*
G02*
X129448750Y-54974000I243750J0D01*
G01*
X129936250Y-54974000D01*
G75*
G02*
X130180000Y-55217750I0J-243750D01*
G01*
X130180000Y-55780250D01*
G75*
G02*
X129936250Y-56024000I-243750J0D01*
G01*
X129448750Y-56024000D01*
G75*
G02*
X129205000Y-55780250I0J243750D01*
G01*
G37*
G36*
G01*
X127630000Y-55780250D02*
X127630000Y-55217750D01*
G75*
G02*
X127873750Y-54974000I243750J0D01*
G01*
X128361250Y-54974000D01*
G75*
G02*
X128605000Y-55217750I0J-243750D01*
G01*
X128605000Y-55780250D01*
G75*
G02*
X128361250Y-56024000I-243750J0D01*
G01*
X127873750Y-56024000D01*
G75*
G02*
X127630000Y-55780250I0J243750D01*
G01*
G37*
G36*
G01*
X127884000Y-53367250D02*
X127884000Y-52804750D01*
G75*
G02*
X128127750Y-52561000I243750J0D01*
G01*
X128615250Y-52561000D01*
G75*
G02*
X128859000Y-52804750I0J-243750D01*
G01*
X128859000Y-53367250D01*
G75*
G02*
X128615250Y-53611000I-243750J0D01*
G01*
X128127750Y-53611000D01*
G75*
G02*
X127884000Y-53367250I0J243750D01*
G01*
G37*
G36*
G01*
X129459000Y-53367250D02*
X129459000Y-52804750D01*
G75*
G02*
X129702750Y-52561000I243750J0D01*
G01*
X130190250Y-52561000D01*
G75*
G02*
X130434000Y-52804750I0J-243750D01*
G01*
X130434000Y-53367250D01*
G75*
G02*
X130190250Y-53611000I-243750J0D01*
G01*
X129702750Y-53611000D01*
G75*
G02*
X129459000Y-53367250I0J243750D01*
G01*
G37*
G36*
G01*
X131090750Y-56534000D02*
X132053250Y-56534000D01*
G75*
G02*
X132322000Y-56802750I0J-268750D01*
G01*
X132322000Y-57340250D01*
G75*
G02*
X132053250Y-57609000I-268750J0D01*
G01*
X131090750Y-57609000D01*
G75*
G02*
X130822000Y-57340250I0J268750D01*
G01*
X130822000Y-56802750D01*
G75*
G02*
X131090750Y-56534000I268750J0D01*
G01*
G37*
G36*
G01*
X131090750Y-54659000D02*
X132053250Y-54659000D01*
G75*
G02*
X132322000Y-54927750I0J-268750D01*
G01*
X132322000Y-55465250D01*
G75*
G02*
X132053250Y-55734000I-268750J0D01*
G01*
X131090750Y-55734000D01*
G75*
G02*
X130822000Y-55465250I0J268750D01*
G01*
X130822000Y-54927750D01*
G75*
G02*
X131090750Y-54659000I268750J0D01*
G01*
G37*
D11*
X125730000Y-53340000D03*
X131445000Y-62230000D03*
X128905000Y-62230000D03*
X126365000Y-62230000D03*
G36*
G01*
X130002000Y-59281750D02*
X130002000Y-59844250D01*
G75*
G02*
X129758250Y-60088000I-243750J0D01*
G01*
X129270750Y-60088000D01*
G75*
G02*
X129027000Y-59844250I0J243750D01*
G01*
X129027000Y-59281750D01*
G75*
G02*
X129270750Y-59038000I243750J0D01*
G01*
X129758250Y-59038000D01*
G75*
G02*
X130002000Y-59281750I0J-243750D01*
G01*
G37*
G36*
G01*
X131577000Y-59281750D02*
X131577000Y-59844250D01*
G75*
G02*
X131333250Y-60088000I-243750J0D01*
G01*
X130845750Y-60088000D01*
G75*
G02*
X130602000Y-59844250I0J243750D01*
G01*
X130602000Y-59281750D01*
G75*
G02*
X130845750Y-59038000I243750J0D01*
G01*
X131333250Y-59038000D01*
G75*
G02*
X131577000Y-59281750I0J-243750D01*
G01*
G37*
G36*
G01*
X126083750Y-58974000D02*
X126646250Y-58974000D01*
G75*
G02*
X126890000Y-59217750I0J-243750D01*
G01*
X126890000Y-59705250D01*
G75*
G02*
X126646250Y-59949000I-243750J0D01*
G01*
X126083750Y-59949000D01*
G75*
G02*
X125840000Y-59705250I0J243750D01*
G01*
X125840000Y-59217750D01*
G75*
G02*
X126083750Y-58974000I243750J0D01*
G01*
G37*
G36*
G01*
X126083750Y-57399000D02*
X126646250Y-57399000D01*
G75*
G02*
X126890000Y-57642750I0J-243750D01*
G01*
X126890000Y-58130250D01*
G75*
G02*
X126646250Y-58374000I-243750J0D01*
G01*
X126083750Y-58374000D01*
G75*
G02*
X125840000Y-58130250I0J243750D01*
G01*
X125840000Y-57642750D01*
G75*
G02*
X126083750Y-57399000I243750J0D01*
G01*
G37*
M02*
