G04 #@! TF.GenerationSoftware,KiCad,Pcbnew,(5.1.6)-1*
G04 #@! TF.CreationDate,2020-06-25T21:37:00+09:00*
G04 #@! TF.ProjectId,MAX1722x-Breakout,4d415831-3732-4327-982d-427265616b6f,rev?*
G04 #@! TF.SameCoordinates,Original*
G04 #@! TF.FileFunction,Copper,L2,Bot*
G04 #@! TF.FilePolarity,Positive*
%FSLAX46Y46*%
G04 Gerber Fmt 4.6, Leading zero omitted, Abs format (unit mm)*
G04 Created by KiCad (PCBNEW (5.1.6)-1) date 2020-06-25 21:37:00*
%MOMM*%
%LPD*%
G01*
G04 APERTURE LIST*
G04 #@! TA.AperFunction,ComponentPad*
%ADD10C,1.600000*%
G04 #@! TD*
G04 #@! TA.AperFunction,ViaPad*
%ADD11C,0.800000*%
G04 #@! TD*
G04 #@! TA.AperFunction,ViaPad*
%ADD12C,0.700000*%
G04 #@! TD*
G04 #@! TA.AperFunction,ViaPad*
%ADD13C,0.600000*%
G04 #@! TD*
G04 #@! TA.AperFunction,Conductor*
%ADD14C,0.250000*%
G04 #@! TD*
G04 #@! TA.AperFunction,Conductor*
%ADD15C,0.254000*%
G04 #@! TD*
G04 APERTURE END LIST*
D10*
X125730000Y-53340000D03*
X131445000Y-62230000D03*
X128905000Y-62230000D03*
X126365000Y-62230000D03*
D11*
X127254000Y-59944000D03*
X129540000Y-60579000D03*
X128524000Y-59690000D03*
D12*
X128879600Y-56769000D03*
D13*
X128778000Y-57861200D03*
D11*
X127889000Y-58801000D03*
D14*
X125730000Y-56642000D02*
X125730000Y-53340000D01*
X127889000Y-58801000D02*
X125730000Y-56642000D01*
D15*
G36*
X132944000Y-61087000D02*
G01*
X131752354Y-61087000D01*
X131561318Y-61049000D01*
X131328682Y-61049000D01*
X131100515Y-61094386D01*
X130885587Y-61183412D01*
X130692157Y-61312658D01*
X130527658Y-61477157D01*
X130398412Y-61670587D01*
X130309386Y-61885515D01*
X130264000Y-62113682D01*
X130264000Y-62346318D01*
X130309386Y-62574485D01*
X130398412Y-62789413D01*
X130527658Y-62982843D01*
X130638815Y-63094000D01*
X127171185Y-63094000D01*
X127282342Y-62982843D01*
X127411588Y-62789413D01*
X127500614Y-62574485D01*
X127546000Y-62346318D01*
X127546000Y-62113682D01*
X127500614Y-61885515D01*
X127411588Y-61670587D01*
X127282342Y-61477157D01*
X127117843Y-61312658D01*
X126924413Y-61183412D01*
X126709485Y-61094386D01*
X126492000Y-61051125D01*
X126492000Y-59436000D01*
X127433582Y-59436000D01*
X127519058Y-59493113D01*
X127661191Y-59551987D01*
X127812078Y-59582000D01*
X127965922Y-59582000D01*
X128116809Y-59551987D01*
X128258942Y-59493113D01*
X128386859Y-59407642D01*
X128495642Y-59298859D01*
X128581113Y-59170942D01*
X128639987Y-59028809D01*
X128670000Y-58877922D01*
X128670000Y-58724078D01*
X128639987Y-58573191D01*
X128581113Y-58431058D01*
X128495642Y-58303141D01*
X128386859Y-58194358D01*
X128258942Y-58108887D01*
X128116809Y-58050013D01*
X127965922Y-58020000D01*
X127823592Y-58020000D01*
X126236000Y-56432409D01*
X126236000Y-54408712D01*
X126289413Y-54386588D01*
X126482843Y-54257342D01*
X126647342Y-54092843D01*
X126776588Y-53899413D01*
X126865614Y-53684485D01*
X126911000Y-53456318D01*
X126911000Y-53223682D01*
X126865614Y-52995515D01*
X126776588Y-52780587D01*
X126647342Y-52587157D01*
X126536185Y-52476000D01*
X132944001Y-52476000D01*
X132944000Y-61087000D01*
G37*
X132944000Y-61087000D02*
X131752354Y-61087000D01*
X131561318Y-61049000D01*
X131328682Y-61049000D01*
X131100515Y-61094386D01*
X130885587Y-61183412D01*
X130692157Y-61312658D01*
X130527658Y-61477157D01*
X130398412Y-61670587D01*
X130309386Y-61885515D01*
X130264000Y-62113682D01*
X130264000Y-62346318D01*
X130309386Y-62574485D01*
X130398412Y-62789413D01*
X130527658Y-62982843D01*
X130638815Y-63094000D01*
X127171185Y-63094000D01*
X127282342Y-62982843D01*
X127411588Y-62789413D01*
X127500614Y-62574485D01*
X127546000Y-62346318D01*
X127546000Y-62113682D01*
X127500614Y-61885515D01*
X127411588Y-61670587D01*
X127282342Y-61477157D01*
X127117843Y-61312658D01*
X126924413Y-61183412D01*
X126709485Y-61094386D01*
X126492000Y-61051125D01*
X126492000Y-59436000D01*
X127433582Y-59436000D01*
X127519058Y-59493113D01*
X127661191Y-59551987D01*
X127812078Y-59582000D01*
X127965922Y-59582000D01*
X128116809Y-59551987D01*
X128258942Y-59493113D01*
X128386859Y-59407642D01*
X128495642Y-59298859D01*
X128581113Y-59170942D01*
X128639987Y-59028809D01*
X128670000Y-58877922D01*
X128670000Y-58724078D01*
X128639987Y-58573191D01*
X128581113Y-58431058D01*
X128495642Y-58303141D01*
X128386859Y-58194358D01*
X128258942Y-58108887D01*
X128116809Y-58050013D01*
X127965922Y-58020000D01*
X127823592Y-58020000D01*
X126236000Y-56432409D01*
X126236000Y-54408712D01*
X126289413Y-54386588D01*
X126482843Y-54257342D01*
X126647342Y-54092843D01*
X126776588Y-53899413D01*
X126865614Y-53684485D01*
X126911000Y-53456318D01*
X126911000Y-53223682D01*
X126865614Y-52995515D01*
X126776588Y-52780587D01*
X126647342Y-52587157D01*
X126536185Y-52476000D01*
X132944001Y-52476000D01*
X132944000Y-61087000D01*
M02*
